<svg width="23" height="29" viewBox="0 0 23 29" fill="none" xmlns="http://www.w3.org/2000/svg">
<path d="M15.3503 28.0287C20.0031 28.0287 23 25.0318 23 20.379V13.7248C23 11.9775 22.4616 10.5755 21.3847 9.57997L13.1051 1.97085C11.5203 0.50795 9.84408 0 7.82243 0H3.78932C1.49338 0 0 1.49338 0 3.79947V24.2394C0 26.6166 1.4121 28.0287 3.81979 28.0287H15.3503ZM15.2995 26.2306H3.86042C2.428 26.2306 1.79815 25.6718 1.79815 24.2089V3.84011C1.79815 2.59055 2.56007 1.79815 3.82995 1.79815H7.78182C9.41739 1.79815 10.667 2.20451 11.8657 3.29152L20.125 10.8701C20.8768 11.561 21.1917 12.4245 21.1917 13.7553V20.3384C21.1917 24.0769 19.0278 26.2306 15.2995 26.2306Z" fill="white" fill-opacity="0.85"/>
<path d="M5.97286 14.8322H16.8328C17.2392 14.8322 17.5338 14.5579 17.5338 14.1515C17.5338 13.7553 17.2392 13.4912 16.8328 13.4912H5.97286C5.55633 13.4912 5.26172 13.7553 5.26172 14.1515C5.26172 14.5579 5.55633 14.8322 5.97286 14.8322ZM5.97286 18.652H16.8328C17.2392 18.652 17.5338 18.3879 17.5338 17.9815C17.5338 17.5751 17.2392 17.311 16.8328 17.311H5.97286C5.55633 17.311 5.26172 17.5751 5.26172 17.9815C5.26172 18.3879 5.55633 18.652 5.97286 18.652ZM5.97286 22.4921H16.8328C17.2392 22.4921 17.5338 22.228 17.5338 21.8317C17.5338 21.4254 17.2392 21.1511 16.8328 21.1511H5.97286C5.55633 21.1511 5.26172 21.4254 5.26172 21.8317C5.26172 22.228 5.55633 22.4921 5.97286 22.4921Z" fill="white" fill-opacity="0.85"/>
</svg>
