<svg width="9" height="9" viewBox="0 0 9 9" fill="none" xmlns="http://www.w3.org/2000/svg">
<path d="M6.28284 8.4264C6.24219 8.69953 6.43065 8.9539 6.70379 8.99455C6.97692 9.0352 7.23129 8.84674 7.27194 8.5736L6.28284 8.4264ZM8 1L8.49269 1.08517L8.59385 0.5H8V1ZM2.66667 1V0.5H0.820164L2.41438 1.43169L2.66667 1ZM5 2.36364L5.31126 2.75494C5.44037 2.65223 5.51051 2.49245 5.49872 2.3279C5.48693 2.16334 5.39472 2.01519 5.25228 1.93195L5 2.36364ZM2 4.75L1.68874 4.3587L0.568246 5.25H2V4.75ZM7.23517 5.42416L6.74234 5.33896L6.74062 5.35055L7.23517 5.42416ZM5.66667 5.25C5.94281 5.25 6.16667 5.02614 6.16667 4.75C6.16667 4.47386 5.94281 4.25 5.66667 4.25V5.25ZM8 0.5H2.66667V1.5H8V0.5ZM2.41438 1.43169L4.74772 2.79532L5.25228 1.93195L2.91895 0.568314L2.41438 1.43169ZM4.68874 1.97234L1.68874 4.3587L2.31126 5.1413L5.31126 2.75494L4.68874 1.97234ZM7.27194 8.5736L7.72972 5.49776L6.74062 5.35055L6.28284 8.4264L7.27194 8.5736ZM7.72786 5.50933L8.49269 1.08517L7.50731 0.914826L6.74248 5.33898L7.72786 5.50933ZM2 5.25H5.66667V4.25H2V5.25Z" fill="white" fill-opacity="0.77"/>
</svg>
